<svg version="1" xmlns="http://www.w3.org/2000/svg" width="2185.333" height="2185.333" viewBox="0 0 1639.000000 1639.000000"><path d="M433.5 256c-29.4.9-34.8 1.3-60 4.6-34.1 4.4-52.3 7.8-83 15.6C144.9 312.8 37.6 398 12.5 496.8c-4.1 16.4-5.7 29.2-5.7 46.7 0 31.8 6.6 58.7 21.9 88.7C80.4 734.3 216 809.1 382.5 827.4c36.3 4 87.5 5.1 121.5 2.7 32.5-2.4 71.9-7.6 95-12.7 52.3-11.4 73.7-13.8 123.5-13.7 35.6 0 56.6 1.5 90.9 6.4 166.4 23.7 342.5 110.8 503.9 249.4 38.6 33.1 97.8 90.6 131.3 127.5 49.6 54.7 97 114 137.9 172.7 5.5 7.8 10.1 14.1 10.2 13.9.4-.4-10.9-33.6-19.9-58.6-22.1-61.1-54.9-134.6-84.8-190-154.2-286.3-395.4-482-731-593-17.9-5.9-39-12.7-47-15-15.4-4.5-19.4-6.4-12-5.5 2.5.3 12.2 1.2 21.5 2.1 118.6 10.8 235.5 39.1 338 81.9 177.7 74.1 336.2 199.3 499.8 394.8 15.4 18.3 53.8 66.1 64.7 80.4 3 4 5.5 7.1 5.7 6.9.5-.5-5.7-19.6-13.8-42.3-49.5-139.3-116.8-259-205-364.8-39.6-47.4-89-96.8-136.4-136.3-92.3-77.1-198.1-139.8-314.5-186.7-118.9-47.9-250.6-78.8-375-88-45.8-3.3-110.5-4.8-153.5-3.5z"/></svg>